<svg width="24" height="24" viewBox="0 0 24 24" fill="none" xmlns="http://www.w3.org/2000/svg">
<path d="M18.4965 10.2546C18.4965 10.2994 18.4952 10.3438 18.4926 10.3879C18.4507 10.3508 18.4066 10.3159 18.3606 10.2834C18.0998 10.099 17.7882 10 17.4689 10C17.3076 10 17.1483 10.0253 16.9965 10.074V5.74999C16.9965 5.33578 16.6607 4.99999 16.2465 4.99999H7.74646C7.33224 4.99999 6.99646 5.33578 6.99646 5.74999V10.2546C6.99646 10.6688 7.33224 11.0046 7.74646 11.0046H16.0219L16.0127 11.03L16.0086 11.0417L15.5583 12.426L15.5495 12.4524C15.5435 12.4699 15.5372 12.4873 15.5306 12.5046H7.74646C6.50382 12.5046 5.49646 11.4972 5.49646 10.2546V5.74999C5.49646 4.50735 6.50382 3.49999 7.74646 3.49999L11.246 3.49949L11.2468 2.75049C11.2468 2.37079 11.5289 2.057 11.895 2.00733L11.9968 2.00049C12.3765 2.00049 12.6903 2.28264 12.7399 2.64872L12.7468 2.75049L12.746 3.49949L16.2465 3.49999C17.4891 3.49999 18.4965 4.50735 18.4965 5.74999V10.2546ZM13.0389 14.0365L13.1515 13.9999H6.25C5.00736 13.9999 4 15.0073 4 16.2499V17.1572C4 18.25 4.47665 19.2884 5.30528 20.0008C6.86814 21.3445 9.10696 22.0011 11.9965 22.0011C14.0724 22.0011 15.8132 21.6621 17.2093 20.9731C16.9929 20.9321 16.7865 20.8451 16.6048 20.7166C16.3439 20.5322 16.1467 20.2714 16.0403 19.97L16.0361 19.9583L16.0057 19.8646C14.9206 20.2865 13.5862 20.5011 11.9965 20.5011C9.43726 20.5011 7.54125 19.945 6.28317 18.8634C5.78599 18.4359 5.5 17.8129 5.5 17.1572V16.2499C5.5 15.8357 5.83579 15.4999 6.25 15.4999H11.9965L11.9965 15.4966C11.9965 15.1769 12.0957 14.8653 12.2803 14.6045C12.465 14.3438 12.726 14.1468 13.0272 14.0406L13.0389 14.0365ZM10.995 7.74928C10.995 7.05932 10.4357 6.49999 9.74575 6.49999C9.05578 6.49999 8.49646 7.05932 8.49646 7.74928C8.49646 8.43925 9.05578 8.99857 9.74575 8.99857C10.4357 8.99857 10.995 8.43925 10.995 7.74928ZM14.2385 6.49999C14.9284 6.49999 15.4878 7.05932 15.4878 7.74928C15.4878 8.43925 14.9284 8.99857 14.2385 8.99857C13.5485 8.99857 12.9892 8.43925 12.9892 7.74928C12.9892 7.05932 13.5485 6.49999 14.2385 6.49999ZM16.0847 17.4123C16.0124 17.3189 15.9342 17.2298 15.8503 17.1457C15.5381 16.8326 15.157 16.5967 14.7374 16.4568L13.3596 16.0094C13.2534 15.972 13.1615 15.9025 13.0964 15.8107C13.0314 15.7188 12.9965 15.6091 12.9965 15.4966C12.9965 15.384 13.0314 15.2743 13.0964 15.1824C13.1615 15.0906 13.2534 15.0212 13.3596 14.9837L14.7374 14.5363C15.1512 14.3935 15.5263 14.1571 15.8335 13.8454C16.1322 13.5422 16.3587 13.1759 16.4965 12.7737L16.5079 12.7396L16.9557 11.3629C16.9931 11.2568 17.0626 11.1649 17.1545 11.0999C17.2465 11.0349 17.3563 11 17.4689 11C17.5815 11 17.6913 11.0349 17.7833 11.0999C17.8752 11.1649 17.9447 11.2568 17.9821 11.3629L18.4299 12.7396C18.5692 13.1582 18.8042 13.5385 19.1163 13.8504C19.4284 14.1623 19.8091 14.3971 20.2279 14.5363L21.6057 14.9837L21.6333 14.9906C21.7395 15.028 21.8314 15.0975 21.8965 15.1893C21.9615 15.2812 21.9965 15.3909 21.9965 15.5034C21.9965 15.616 21.9615 15.7257 21.8965 15.8176C21.8314 15.9094 21.7395 15.9788 21.6333 16.0163L20.2555 16.4637C19.8366 16.6029 19.456 16.8377 19.1439 17.1496C18.8317 17.4615 18.5967 17.8418 18.4575 18.2604L18.0097 19.6371C18.0056 19.6486 18.0012 19.6598 17.9965 19.6709C17.957 19.7627 17.8928 19.8421 17.8108 19.9001C17.7189 19.9651 17.6091 20 17.4965 20C17.3839 20 17.274 19.9651 17.1821 19.9001C17.0902 19.8351 17.0207 19.7432 16.9832 19.6371L16.5354 18.2604C16.4343 17.9533 16.2816 17.6666 16.0847 17.4123ZM23.7794 21.2132L23.0139 20.9646C22.7812 20.8873 22.5698 20.7568 22.3964 20.5836C22.223 20.4103 22.0924 20.199 22.015 19.9665L21.7663 19.2016C21.7455 19.1427 21.7069 19.0916 21.6558 19.0555C21.6047 19.0194 21.5437 19 21.4812 19C21.4186 19 21.3576 19.0194 21.3065 19.0555C21.2554 19.0916 21.2168 19.1427 21.196 19.2016L20.9473 19.9665C20.8714 20.1974 20.7432 20.4076 20.5726 20.5808C20.4019 20.7539 20.1935 20.8853 19.9637 20.9646L19.1982 21.2132C19.1392 21.234 19.0881 21.2725 19.052 21.3236C19.0159 21.3746 18.9965 21.4356 18.9965 21.4981C18.9965 21.5606 19.0159 21.6216 19.052 21.6726C19.0881 21.7236 19.1392 21.7622 19.1982 21.783L19.9637 22.0316C20.1968 22.1093 20.4085 22.2403 20.5819 22.4143C20.7554 22.5882 20.8857 22.8003 20.9626 23.0335L21.2113 23.7984C21.2321 23.8573 21.2707 23.9084 21.3218 23.9445C21.3729 23.9806 21.4339 24 21.4965 24C21.559 24 21.62 23.9806 21.6711 23.9445C21.7222 23.9084 21.7608 23.8573 21.7816 23.7984L22.0304 23.0335C22.1077 22.801 22.2383 22.5897 22.4117 22.4164C22.5851 22.2432 22.7965 22.1127 23.0293 22.0354L23.7947 21.7868C23.8537 21.766 23.9048 21.7275 23.9409 21.6764C23.9771 21.6254 23.9965 21.5644 23.9965 21.5019C23.9965 21.4394 23.9771 21.3784 23.9409 21.3274C23.9048 21.2764 23.8537 21.2378 23.7947 21.217L23.7794 21.2132Z" fill="#E51E25"/>
</svg>
