<svg width="24" height="24" viewBox="0 0 24 24" fill="none" xmlns="http://www.w3.org/2000/svg">
<path d="M8.99844 5.9999C8.66707 5.9999 8.39844 6.26853 8.39844 6.5999C8.39844 6.93127 8.66707 7.1999 8.99844 7.1999H14.9984C15.3298 7.1999 15.5984 6.93127 15.5984 6.5999C15.5984 6.26853 15.3298 5.9999 14.9984 5.9999H8.99844ZM8.39844 14.9999C8.39844 14.6685 8.66707 14.3999 8.99844 14.3999H14.9984C15.3298 14.3999 15.5984 14.6685 15.5984 14.9999C15.5984 15.3313 15.3298 15.5999 14.9984 15.5999H8.99844C8.66707 15.5999 8.39844 15.3313 8.39844 14.9999ZM8.99844 16.7999C8.66707 16.7999 8.39844 17.0685 8.39844 17.3999C8.39844 17.7313 8.66707 17.9999 8.99844 17.9999H14.9984C15.3298 17.9999 15.5984 17.7313 15.5984 17.3999C15.5984 17.0685 15.3298 16.7999 14.9984 16.7999H8.99844ZM5.99844 5.3999C5.99844 3.74305 7.34158 2.3999 8.99844 2.3999H14.9984C16.6553 2.3999 17.9984 3.74305 17.9984 5.3999V5.9999H19.1984C20.5239 5.9999 21.5984 7.07442 21.5984 8.3999V16.7999C21.5984 18.1254 20.5239 19.1999 19.1984 19.1999H17.9384C17.6605 20.5692 16.4498 21.5999 14.9984 21.5999H8.99844C7.54706 21.5999 6.33641 20.5692 6.05845 19.1999H4.79844C3.47295 19.1999 2.39844 18.1254 2.39844 16.7999V8.3999C2.39844 7.07442 3.47295 5.9999 4.79844 5.9999H5.99844V5.3999ZM17.9984 17.9999H19.1984C19.8612 17.9999 20.3984 17.4626 20.3984 16.7999V8.3999C20.3984 7.73716 19.8612 7.1999 19.1984 7.1999H17.9984V17.9999ZM5.99844 7.1999H4.79844C4.1357 7.1999 3.59844 7.73716 3.59844 8.3999V16.7999C3.59844 17.4626 4.1357 17.9999 4.79844 17.9999H5.99844V7.1999ZM8.99844 3.5999C8.00432 3.5999 7.19844 4.40579 7.19844 5.3999V18.5999C7.19844 19.594 8.00432 20.3999 8.99844 20.3999H14.9984C15.9926 20.3999 16.7984 19.594 16.7984 18.5999V5.3999C16.7984 4.40579 15.9926 3.5999 14.9984 3.5999H8.99844Z" fill="#E51E25"/>
</svg>
