<svg width="24" height="24" viewBox="0 0 24 24" fill="none" xmlns="http://www.w3.org/2000/svg">
<path d="M3.59844 11.3999C3.59844 15.5058 6.77097 18.8708 10.7984 19.1772V20.3802C6.10762 20.0715 2.39844 16.1688 2.39844 11.3999C2.39844 6.42934 6.42787 2.3999 11.3984 2.3999C16.1674 2.3999 20.07 6.10913 20.3788 10.8C19.4986 10.807 18.7314 11.2878 18.3195 11.9999H12.5984C11.6043 11.9999 10.7984 11.194 10.7984 10.1999V3.62264C6.77097 3.92901 3.59844 7.29396 3.59844 11.3999ZM19.1757 10.7999C18.8844 6.97046 15.8279 3.91395 11.9984 3.62264V10.1999C11.9984 10.5313 12.2671 10.7999 12.5984 10.7999H19.1757ZM19.1984 13.1999C19.1984 12.5372 19.7357 11.9999 20.3984 11.9999C21.0611 11.9999 21.5984 12.5372 21.5984 13.1999V21.5999C21.5984 22.2626 21.0611 22.7999 20.3984 22.7999C19.7357 22.7999 19.1984 22.2626 19.1984 21.5999V13.1999ZM11.9984 17.9999C11.9984 17.3372 12.5357 16.7999 13.1984 16.7999C13.8612 16.7999 14.3984 17.3372 14.3984 17.9999V21.5999C14.3984 22.2626 13.8612 22.7999 13.1984 22.7999C12.5357 22.7999 11.9984 22.2626 11.9984 21.5999V17.9999ZM15.5984 15.5999C15.5984 14.9372 16.1357 14.3999 16.7984 14.3999C17.4612 14.3999 17.9984 14.9372 17.9984 15.5999V21.5999C17.9984 22.2626 17.4612 22.7999 16.7984 22.7999C16.1357 22.7999 15.5984 22.2626 15.5984 21.5999V15.5999Z" fill="#E51E25"/>
</svg>
